<svg width="23" height="23" viewBox="0 0 23 23" fill="none" xmlns="http://www.w3.org/2000/svg">
<path d="M11.1469 3.19971C6.8121 3.19971 3.29999 6.74346 3.29999 11.0466C3.29999 15.3813 6.8121 18.8935 11.1469 18.8935C15.45 18.8935 18.9937 15.3813 18.9937 11.0466C18.9937 6.74346 15.45 3.19971 11.1469 3.19971ZM16.3043 6.83838C17.2535 7.97744 17.823 9.43291 17.823 11.0149C17.6016 10.9517 15.3867 10.5087 13.1719 10.7935C12.982 10.3505 12.8238 9.9708 12.5707 9.46455C15.0703 8.45205 16.1777 7.02822 16.3043 6.83838ZM15.5766 6.04736C15.45 6.23721 14.4375 7.59775 12.0644 8.48369C10.957 6.45869 9.75468 4.81338 9.56483 4.56025C11.6848 4.054 13.9312 4.59189 15.5766 6.04736ZM8.26757 5.00322C8.45741 5.25635 9.65975 6.90166 10.7672 8.89502C7.63475 9.71768 4.88202 9.71768 4.56561 9.68604C5.00858 7.62939 6.40077 5.88916 8.26757 5.00322ZM4.43905 11.0782C4.43905 11.0149 4.43905 10.9517 4.43905 10.8567C4.72382 10.8884 7.9828 10.92 11.3051 9.90752C11.5266 10.2872 11.6848 10.6669 11.8746 11.0466C9.43827 11.7427 7.22343 13.7044 6.14764 15.5396C5.07186 14.3688 4.43905 12.7868 4.43905 11.0782ZM7.00194 16.3622C7.72968 14.9384 9.62811 13.0716 12.3176 12.154C13.2668 14.5903 13.6465 16.647 13.7414 17.2481C11.5898 18.1657 8.9953 17.9126 7.00194 16.3622ZM14.8805 16.6153C14.8172 16.2356 14.4375 14.2739 13.5832 11.8376C15.6715 11.5212 17.5066 12.0591 17.7598 12.1224C17.4433 13.9892 16.3676 15.6028 14.8805 16.6153Z" fill="#111928"/>
</svg>
